<?xml version="1.0" encoding="UTF-8"?>
<svg id="Layer_1" data-name="Layer 1" xmlns="http://www.w3.org/2000/svg" viewBox="0 0 500 500">
  <defs>
    <style>
      .cls-1 {
      fill: none;
      }

      .cls-1, .cls-2, .cls-3 {
      stroke-width: 0px;
      }

      .cls-2 {
      fill: #1E1E1E;
      }

      .cls-3 {
      fill: #D9D9D9;
      }
    </style>
  </defs>
  <rect class="cls-2" x="27" y="27" width="446" height="446" rx="90.62" ry="90.62"/>
  <g>
    <path class="cls-3" d="m380.48,173.71c-22.6-30.11-56.47-51.3-95.33-57.32l.13-.13-26.11-4.78-105.29-19.27h-.02c-1.58-.49-3.17-.9-4.81-1.23-3.17-.64-6.47-.98-9.83-.98-27.19,0-49.23,22.04-49.23,49.23,0,3.36.34,6.66.98,9.83.33,1.64.74,3.23,1.23,4.81v.02l19.27,105.29,4.78,26.11.13-.13c6.02,38.86,27.21,72.73,57.32,95.33,24.66,18.54,55.35,29.52,88.6,29.52,81.58,0,147.69-66.12,147.69-147.69,0-33.25-10.98-63.93-29.52-88.6Z"/>
    <path class="cls-1" d="m114.75,141.66c-.1-.79-.13-1.61-.13-2.43,0-13.59,11.03-24.62,24.62-24.62.82,0,1.64.03,2.43.13,12.46,1.21,22.19,11.72,22.19,24.48,0,.82-.03,1.64-.13,2.43-1.13,11.65-10.4,20.92-22.06,22.06-.79.1-1.61.13-2.43.13-12.77,0-23.27-9.73-24.48-22.19Z"/>
    <path class="cls-2" d="m262.31,362.31c-18.21,0-35.29-4.88-50-13.39-29.89-17.28-50-49.6-50-86.61,0-18.21,4.88-35.29,13.39-50,8.77-15.19,21.43-27.84,36.61-36.61,14.71-8.51,31.79-13.39,50-13.39,37.01,0,69.33,20.11,86.61,50,8.51,14.71,13.39,31.79,13.39,50,0,55.23-44.77,100-100,100Z"/>
    <path class="cls-2" d="m164.23,139.23c0,.83-.03,1.67-.13,2.47-1.15,11.83-10.57,21.25-22.4,22.4-.8.1-1.63.13-2.47.13-12.97,0-23.63-9.88-24.87-22.53-.1-.8-.13-1.63-.13-2.47,0-13.8,11.2-25,25-25,.83,0,1.67.03,2.47.13,12.65,1.23,22.53,11.9,22.53,24.87Z"/>
    <line class="cls-1" x1="92.22" y1="153.87" x2="91.64" y2="150.72"/>
  </g>
</svg>